<svg xmlns="http://www.w3.org/2000/svg" viewBox="0 0 24 24">
    <circle cx="19.2369" cy="1.172" r="1.172"/>
    <circle cx="18.387" cy="5.42" r="0.886"/>
    <circle cx="23.2064" cy="6.8376" r="0.5943"/>
    <circle cx="14.9908" cy="17.3351" r="1.4519"/>
    <circle cx="7.3217" cy="16.4856" r="1.171"/>
    <circle cx="11.5809" cy="12.2264" r="0.8685"/>
    <circle cx="6.1889" cy="10.8007" r="1.7289"/>
    <circle cx="9.8797" cy="7.1197" r="0.8843"/>
    <path d="M23.4118,12A11.3612,11.3612,0,1,1,12.0506.6388c.2569,0,.6607.056.9133.0728C12.5,2.0185,12.3333,3.63,14.2963,4.4444,12.2593,7.1111,15.6852,12,19.5556,9.9074c1.27,1.934,2.4444,1.8889,3.819,1.1663Q23.4117,11.532,23.4118,12Z" fill="none" stroke="currentColor" stroke-width="1.7" stroke-linejoin="round"/>
</svg>