<?xml version="1.0" encoding="utf-8"?>
<!-- Generator: Adobe Illustrator 24.0.1, SVG Export Plug-In . SVG Version: 6.00 Build 0)  -->
<svg fill="currentColor" version="1.1" id="Layer_1" xmlns="http://www.w3.org/2000/svg" xmlns:xlink="http://www.w3.org/1999/xlink" x="0px" y="0px"
	 viewBox="0 0 100 100" style="enable-background:new 0 0 100 100;" xml:space="preserve">
<path d="M50,0C22.5,0,0,22.7,0,50.2C0,77.5,22.3,100,50,100c27.7,0,50-22.5,50-49.8C100,22.7,77.5,0,50,0z M58.8,93.3
	C56,93.8,53,94.1,50,94.1s-6-0.3-8.8-0.9V79.6c0-3.3,0.9-4.5,2.1-6c0.6-0.7,1-1.3,3.6-5.3l-4.5-0.7c-11.6-1.7-16.2-7.7-18-12.4
	c-2.3-6.3-1.1-14.1,3.1-19.1c0.6-0.8,1.2-2.1,0.7-3.4c-0.9-2.7-0.8-7-0.2-8.6c3.1,0.4,6.3,2.7,9,4.3c1.2,0.7,1.9,0.5,2.5,0.6
	c2.1-0.4,5.5-1.5,10.6-1.5c3.2,0,6.5,0.5,9.8,1.4c0.6,0,1.5,0.5,3.2-0.5c2.8-1.7,5.9-3.8,9-4.3c0.6,1.6,0.7,5.9-0.2,8.6
	c-0.5,1.3,0.1,2.6,0.7,3.4c4.2,5,5.4,12.8,3.1,19.1c-1.8,4.7-6.4,10.7-18,12.4l-4.5,0.7c2.8,4.2,3.1,4.7,3.6,5.3
	c1.2,1.6,2.1,2.8,2.1,6V93.3z M64.6,91.6v-12c0-3.3-0.7-5.6-1.6-7.2c8.9-2.4,15.2-7.7,18-15.2c3-8,1.6-17.5-3.3-24
	c0.9-3.9,0.9-10.2-1.2-13.1c-0.9-1.3-2.2-2-3.9-2c-0.1,0-0.1,0-0.1,0c-4.5,0.2-8.1,2.5-12,4.9c-3.5-0.9-7.1-1.4-10.7-1.4
	c-3.6,0-7.3,0.5-10.5,1.4c-4-2.4-7.6-4.6-12.2-4.9c-1.5,0-2.8,0.7-3.7,2c-2.1,2.9-2.1,9.2-1.2,13.1c-5,6.6-6.3,16.1-3.3,24
	c2.8,7.6,9.1,12.8,18,15.2c-0.7,1.3-1.3,2.9-1.5,5.1c-1.8,0.6-3.4,0.8-4.8,0.4c-1.5-0.5-2.7-1.5-3.8-3.2c-2.3-3.9-6.3-7.1-10.8-6.7
	l0.5,5.8c2.1-0.2,4.2,2,5.2,3.8c1.8,3,4.2,5,7.1,5.8c2.2,0.6,4.2,0.6,6.4,0.2v7.9c-17.1-6-29.5-22.3-29.5-41.4
	C5.9,25.9,25.7,5.9,50,5.9s44.1,20.1,44.1,44.3C94.1,69.3,81.7,85.6,64.6,91.6z"/>
</svg>
